<svg width="372" height="301" viewBox="0 0 372 301" fill="none" xmlns="http://www.w3.org/2000/svg">
<path d="M22.6559 120.757C6.89316 148.326 0.088618 180.111 3.18364 211.715L57.3177 222.182" stroke="#3B3748" stroke-width="4" stroke-linecap="round" stroke-linejoin="round"/>
<path d="M52.2476 135.192V151.731" stroke="#3B3748" stroke-width="4" stroke-linecap="round" stroke-linejoin="round"/>
<path d="M104.22 135.413C111.947 129.164 119.916 122.775 129.433 119.879C138.95 116.984 150.455 118.39 156.955 125.907C163.633 133.638 163.188 145.274 160.337 155.087C152.236 182.951 126.608 204.871 97.8172 208.551" stroke="#3B3748" stroke-width="4" stroke-linecap="round" stroke-linejoin="round"/>
<path d="M128.938 145.226C132.032 153.553 129.777 163.61 123.422 169.82" stroke="#3B3748" stroke-width="4" stroke-linecap="round" stroke-linejoin="round"/>
<path d="M76.5723 230.707C77.5685 232.677 78.5872 234.73 78.6352 236.937C78.6833 239.144 77.4628 241.546 75.3262 242.103C71.9884 242.977 69.4065 239.262 67.9586 236.13C66.5107 232.997 65.3286 228.545 68.1892 226.553C70.1112 225.221 72.9045 226.006 74.5414 227.678C76.1783 229.349 76.9311 231.668 77.6326 233.897" stroke="#3B3748" stroke-width="4" stroke-linecap="round" stroke-linejoin="round"/>
<path d="M84.6805 87.7462C100.29 77.8369 119.189 74.3138 137.767 77.1963C154.744 80.0788 170.12 86.8046 181.01 100.897C187.737 110.185 190.3 122.996 183.993 132.53C191.418 135.701 184.592 131.569 183.993 132.53C191.418 135.701 197.843 140.976 202.683 147.41C207.548 153.858 210.775 161.392 212.085 169.362C213.372 177.312 212.46 185.462 209.448 192.931C206.39 200.391 201.551 206.989 195.354 212.147C189.236 217.272 181.872 220.955 174.015 222.454C173.047 222.64 172.076 222.791 171.1 222.909C178.489 225.407 185.882 227.94 193.058 231.018C206.639 237.023 219.772 244.39 228.101 257.841C235.468 270.332 238.031 285.705 230.984 298.234" stroke="#3B3748" stroke-width="4" stroke-linecap="round" stroke-linejoin="round"/>
<path d="M25.5911 80.9372L10.3689 70.3969" stroke="#3B3748" stroke-width="4" stroke-linecap="round" stroke-linejoin="round"/>
<path d="M42.4775 69.9071L35.3758 50.7353" stroke="#3B3748" stroke-width="4" stroke-linecap="round" stroke-linejoin="round"/>
<path d="M64.1088 63.5496L66.5247 46.3412" stroke="#3B3748" stroke-width="4" stroke-linecap="round" stroke-linejoin="round"/>
<path d="M117.688 232.146C113.429 243.094 106.014 252.53 96.3824 259.257" stroke="#3B3748" stroke-width="4" stroke-linecap="round" stroke-linejoin="round"/>
<path d="M236.886 197.851C264.604 205.79 296.065 199.183 318.248 180.761C324.471 175.591 330.224 169.109 331.701 161.153C333.178 153.198 328.818 143.769 320.922 142.049C314.042 140.55 306.863 145.515 304.314 152.077C301.764 158.639 303.122 166.198 306.261 172.501C311.828 183.685 323.052 191.868 335.41 193.741C347.768 195.615 360.911 191.131 369.547 182.099" stroke="#3B3748" stroke-width="4" stroke-linecap="round" stroke-linejoin="round"/>
<path d="M303.193 223.911C321.131 228.975 336.241 243.058 342.567 260.573" stroke="#3B3748" stroke-width="4" stroke-linecap="round" stroke-linejoin="round"/>
<path d="M175.614 5.2337C182.613 22.4933 180.768 43.0742 170.809 58.8157" stroke="#3B3748" stroke-width="4" stroke-linecap="round" stroke-linejoin="round"/>
<path d="M248.28 159.453C241.946 155.399 236.387 150.246 231.867 144.237C227.494 138.477 224.269 131.932 222.366 124.956C220.415 117.586 220.076 109.883 221.373 102.37C222.573 95.0972 225.395 88.1877 229.631 82.1544C233.907 76.0997 239.605 71.1871 246.224 67.8478C252.809 64.5618 260.173 62.7491 267.55 62.9476C274.714 63.1122 281.699 65.2211 287.756 69.0488C293.684 72.8104 298.558 78.0167 301.921 84.1787C305.233 90.3344 306.937 97.4188 306.283 104.41C305.64 111.498 303.03 118.264 298.746 123.947C297.607 125.469 296.364 126.91 295.027 128.261C293.687 129.575 292.255 130.791 290.742 131.9C287.825 134.051 284.588 135.729 281.148 136.87C273.95 139.298 265.728 139.343 258.549 136.809C254.792 135.501 251.315 133.498 248.299 130.903C245.579 128.524 243.307 125.677 241.592 122.496C238.068 116.014 236.787 108.196 238.85 101.038C240.909 94.1084 245.609 88.266 251.938 84.7711C255.185 82.9801 258.788 81.9282 262.489 81.6901C266.215 81.4595 269.857 82.3113 273.246 83.7974C279.652 86.603 284.892 92.445 286.76 99.2124C288.762 106.467 286.549 114.771 281.039 119.947C279.68 121.255 278.119 122.336 276.417 123.15C274.57 123.999 272.598 124.546 270.577 124.77C266.999 125.154 263.387 124.463 260.202 122.788C258.634 121.973 257.218 120.895 256.016 119.601C254.699 118.158 253.667 116.479 252.973 114.653C251.743 111.527 251.691 107.825 252.614 104.612C253.554 101.195 255.706 98.2357 258.668 96.2881" stroke="#3B3748" stroke-width="4" stroke-linecap="round"/>
<path d="M281.731 7.34433C274.716 2.3128 264.991 1.33605 257.115 4.87189C249.238 8.40773 243.508 16.3249 242.607 24.9083C241.989 30.8174 243.793 37.2485 248.415 40.9765C253.037 44.7045 260.664 44.7365 264.476 40.1822C267.359 36.7521 267.483 31.5764 265.59 27.5281C263.697 23.4798 260.078 20.45 256.128 18.3522C246.659 13.3175 234.731 13.2279 225.179 18.0897C215.627 22.9514 208.702 32.6749 207.218 43.2952" stroke="#3B3748" stroke-width="4" stroke-linecap="round" stroke-linejoin="round"/>
<path d="M273.209 231.288C269.631 233.615 266.491 236.573 263.937 240.022C261.467 243.328 259.645 247.085 258.57 251.089C257.467 255.319 257.276 259.741 258.009 264.053C258.686 268.227 260.281 272.193 262.674 275.656C265.09 279.131 268.309 281.951 272.048 283.868C275.768 285.754 279.929 286.794 284.096 286.68C288.143 286.586 292.089 285.375 295.511 283.178C298.86 281.019 301.614 278.031 303.513 274.494C305.385 270.961 306.347 266.895 305.978 262.882C305.615 258.814 304.14 254.93 301.72 251.668C301.076 250.795 300.374 249.967 299.619 249.192C298.862 248.438 298.053 247.74 297.198 247.103C295.55 245.868 293.721 244.906 291.778 244.25C287.712 242.857 283.066 242.831 279.011 244.285C276.889 245.036 274.924 246.186 273.22 247.675C271.683 249.041 270.4 250.675 269.431 252.501C267.44 256.221 266.717 260.709 267.882 264.817C269.045 268.795 271.701 272.148 275.276 274.154C277.111 275.182 279.146 275.786 281.237 275.923C283.342 276.055 285.399 275.566 287.314 274.713C290.933 273.103 293.893 269.75 294.948 265.865C296.079 261.701 294.829 256.935 291.716 253.964C290.948 253.213 290.067 252.593 289.105 252.126C288.062 251.638 286.948 251.324 285.806 251.196C283.785 250.976 281.744 251.372 279.945 252.333C279.059 252.801 278.259 253.42 277.58 254.163C276.836 254.991 276.253 255.955 275.861 257.003C275.166 258.797 275.137 260.922 275.658 262.766C276.189 264.727 277.405 266.426 279.078 267.544" stroke="#3B3748" stroke-width="4" stroke-linecap="round"/>
</svg>
