<svg width="389" height="335" viewBox="0 0 389 335" fill="none" xmlns="http://www.w3.org/2000/svg">
<path d="M202.215 35.2351C203.979 51.412 206.122 68.5446 216.256 81.2703C220.35 86.4064 226.957 90.8602 233.152 88.6752C236.948 87.3351 239.587 83.7263 240.789 79.8859C241.991 76.0455 241.986 71.944 241.966 67.9189C241.919 58.5105 241.873 49.1037 241.828 39.6986M205.186 52.1607L239.944 50.1038M228.6 90.3871L236.507 127.776M208.292 133.629L252.5 124.648M81.9542 248.872C82.2671 259.92 84.0431 270.727 89.2285 280.391C92.8127 287.069 99.3874 293.489 106.871 292.291C111.455 291.552 115.197 288.01 117.363 283.899C119.528 279.787 120.365 275.134 121.176 270.562C123.073 259.876 124.969 249.19 126.864 238.504M104.737 293.168L105.806 331.368M77 332.062L122.099 331.161M187.534 132.154C186.795 148.412 186.277 165.655 194.345 179.8C197.604 185.505 203.444 190.919 209.903 189.712C213.86 188.973 217.022 185.813 218.803 182.204C220.584 178.595 221.208 174.538 221.806 170.56C223.206 161.255 224.606 151.952 226.006 142.65M187.869 149.335L222.53 152.641M205.132 190.705L207.204 228.862M180.097 229.328L225.203 228.717M189.036 234.174C189.775 250.432 190.292 267.69 182.223 281.822C178.966 287.527 173.123 292.942 166.666 291.735C162.71 290.996 159.547 287.835 157.766 284.224C155.985 280.613 155.362 276.561 154.763 272.58C153.363 263.278 151.963 253.976 150.564 244.672M188.699 251.355L154.039 254.664M171.438 292.72L169.367 330.878M196.473 331.033L151.364 331.057M171.239 42.6522C166.233 58.1369 161.183 74.6489 165.235 90.4094C166.871 96.7723 171.078 103.534 177.626 104.074C181.639 104.406 185.509 102.192 188.194 99.1789C190.879 96.1662 192.534 92.4219 194.163 88.7392C197.966 80.1372 201.771 71.5343 205.578 62.9306M167.029 59.3144L199.587 71.6484M172.761 103.78L164.691 141.132M136.547 134.93L180.562 144.81M189.122 20.487L184.868 3.70892M205.684 2.625V18.8438M222.824 22.2038L227.391 3.88384M214.456 237.997C210.871 257.684 219.451 279.078 235.64 290.833C238.333 292.787 241.284 294.528 244.55 295.134C247.817 295.74 251.465 295.097 253.862 292.794C257.022 289.759 257.281 284.847 256.988 280.477C256.185 268.561 252.865 256.949 247.248 246.409M215.449 262.638L253.079 265.653M245.014 295.354L250.394 329.259M222.861 331.351H277.934M246.758 139.475C245.366 147.899 244.395 169.163 247.3 177.194C251.379 188.478 260.109 190.57 268.169 187.737C275.402 185.197 279.072 177.272 281.395 169.969C285.653 156.562 288.012 142.625 288.403 128.564M245.792 161.339L283.728 160.448M260.629 189.358L261.402 226.594M235.894 228.776L287.871 226.971M154.276 140.199C156.114 148.537 158.217 169.717 155.754 177.888C152.281 189.375 143.671 191.929 135.473 189.528C128.117 187.377 123.176 179.92 121.324 172.489C117.892 158.713 117.892 158.714 114.616 139.866M156.404 155.984C143.686 158.718 131.771 161.017 118.469 163.111M143.08 190.749L144.292 227.973M169.879 228.796L117.882 229.759M327.433 241.482C329.271 249.821 331.374 271.003 328.911 279.172C325.435 290.658 316.826 293.213 308.63 290.813C301.272 288.661 296.33 281.206 294.478 273.772C291.047 259.997 291.047 259.997 287.77 241.15M329.561 257.27C316.843 260.004 304.927 262.305 291.625 264.396M316.237 292.038L317.449 329.259M343.036 330.082L291.039 331.045M83.2916 262.719L123.393 258.063M86.1875 209.265C68.6327 214.18 48.7093 210.088 34.6631 198.689C30.7223 195.488 27.0793 191.477 26.1554 186.552C25.2315 181.628 27.9726 175.795 32.9803 174.729C37.3379 173.801 41.8845 176.874 43.4992 180.937C45.114 185 44.253 189.673 42.2656 193.572C38.7417 200.494 31.631 205.556 23.8073 206.717C15.9836 207.877 7.65626 205.101 2.1875 199.512M44.1875 238.875C30.4358 242.684 18.8524 253.27 14 266.438M386.748 182.992C380.187 196.064 367.081 205.639 352.623 207.929" stroke="white" stroke-width="4" stroke-linecap="round" stroke-linejoin="round"/>
</svg>
